<svg width="128" height="48" viewBox="0 0 128 48" fill="none" xmlns="http://www.w3.org/2000/svg">
<path d="M49.2022 0.184749C52.6521 0.184749 55.2723 2.27922 55.2723 5.94455C55.2723 9.60988 52.6958 11.7044 49.2022 11.7044H43.3506V20.2132H41.8221V0.141113H49.2022V0.184749ZM43.3506 1.53743V10.3953H49.0276C51.8224 10.3953 53.7438 8.99899 53.7438 5.98819C53.7438 2.97738 51.8224 1.58107 49.0276 1.58107H43.3506V1.53743Z" fill="#2B0163"/>
<path d="M49.3388 27.7634C53.269 27.7634 55.5835 29.9887 55.5835 33.3923C55.5835 35.6176 54.0988 37.014 53.0944 37.5376C54.3171 38.1048 55.8892 39.3702 55.8892 42.032C55.8892 45.7846 53.3127 47.7918 49.6882 47.7918H41.26V27.7197L49.3388 27.7634ZM45.1902 31.2542V35.9231H49.0768C50.7362 35.9231 51.6533 35.0067 51.6533 33.5668C51.6533 32.1705 50.7362 31.2542 49.0768 31.2542H45.1902ZM45.1902 39.4139V44.3446H49.2952C51.0419 44.3446 51.9153 43.2537 51.9153 41.8574C51.9153 40.4611 51.0419 39.4139 49.2952 39.4139H45.1902Z" fill="#2B0163"/>
<path d="M73.6256 13.8527C73.6256 17.7798 70.7872 20.5288 66.7259 20.5288C62.6647 20.5288 59.8262 17.7798 59.8262 13.8527V0.282227H61.3546V13.6345C61.3546 16.9508 63.4507 19.1761 66.7259 19.1761C70.0011 19.1761 72.0972 16.9944 72.0972 13.6345V0.282227H73.6256V13.8527Z" fill="#2B0163"/>
<path d="M75.5862 47.9275H71.4812L70.3022 44.3931H63.1841L61.9614 47.9275H57.8564L65.1929 27.8555H68.2497L75.5862 47.9275ZM64.2321 41.0768H69.1668L66.7213 33.7898L64.2321 41.0768Z" fill="#2B0163"/>
<path d="M90.8819 2.22538L89.8775 3.22898C88.6984 2.09447 87.3447 1.35268 84.9866 1.35268C82.0607 1.35268 80.3139 2.92354 80.3139 5.498C80.3139 6.6325 80.6196 7.54883 81.3183 8.15972C82.0171 8.77061 83.0651 9.16332 84.2005 9.29423L86.5587 9.64331C88.4364 9.90512 89.2225 10.2542 90.1395 11.0396C91.2313 11.956 91.8426 13.265 91.8426 14.9231C91.8426 18.3267 89.2661 20.4648 85.0739 20.4648C82.1044 20.4648 80.2266 19.6357 78.3925 17.803L79.4842 16.7122C81.2747 18.5012 82.8031 19.0684 85.2049 19.0684C88.3928 19.0684 90.3579 17.5412 90.3579 14.9231C90.3579 13.7014 90.0085 12.7414 89.2661 12.0869C88.5674 11.476 87.9561 11.2578 86.3403 10.996L83.9822 10.6469C82.4537 10.4287 81.2747 9.94875 80.4013 9.20696C79.3532 8.33426 78.8292 7.11249 78.8292 5.498C78.8292 2.13811 81.1873 0 85.0739 0C87.6067 0.0436349 89.1788 0.698157 90.8819 2.22538Z" fill="#2B0163"/>
<path d="M91.9254 29.979L89.4362 32.4226C88.3445 31.3317 87.1654 31.0263 85.3313 31.0263C83.2352 31.0263 82.2308 32.1608 82.2308 33.5571C82.2308 34.0807 82.4055 34.6043 82.8422 34.997C83.2352 35.3461 83.8466 35.6516 84.6763 35.7388L87.0781 36.0879C88.9122 36.3497 90.0476 36.8297 90.921 37.6588C92.0127 38.6624 92.4931 40.1023 92.4931 41.8913C92.4931 45.7748 89.2616 48.0002 85.0256 48.0002C81.9688 48.0002 79.6543 47.3457 77.6892 45.3385L80.222 42.8077C81.4884 44.0731 83.2352 44.5094 85.0693 44.5094C87.4275 44.5094 88.6502 43.5931 88.6502 41.9786C88.6502 41.2805 88.4318 40.7568 88.0388 40.3205C87.6458 39.9714 87.2091 39.7969 86.2484 39.6223L83.8466 39.2732C82.1435 39.0114 80.8334 38.4878 79.96 37.6151C78.9993 36.6988 78.5189 35.3461 78.5189 33.688C78.5189 30.1099 81.1827 27.5791 85.506 27.5791C88.2135 27.6227 90.2223 28.3209 91.9254 29.979Z" fill="#2B0163"/>
<path d="M109.512 20.2568H107.983V10.788H97.5028V20.2132H95.9744V0.141113H97.5028V9.43534H107.983V0.184749H109.512V20.2568Z" fill="#2B0163"/>
<path d="M109.347 31.253H100.045V35.9656H107.993V39.4564H100.045V44.3435H109.347V47.8342H96.1147V27.7622H109.347V31.253Z" fill="#2B0163"/>
<path d="M120.664 27.8379C123.415 27.8379 125.336 28.8415 126.734 30.7614C127.956 32.4632 128 34.5577 128 37.8739C128 41.1902 127.956 43.241 126.734 44.9864C125.336 46.9063 123.415 47.9099 120.664 47.9099H113.415V27.8379H120.664ZM117.345 31.3287V44.4191H120.358C121.668 44.4191 122.629 43.9828 123.284 43.1974C124.026 42.3247 124.114 41.1029 124.114 37.9175C124.114 34.7758 124.026 33.5104 123.284 32.6377C122.629 31.8087 121.668 31.4159 120.358 31.4159H117.345V31.3287Z" fill="#2B0163"/>
<g clip-path="url(#clip0_2182_22136)">
<path d="M12.1885 44.8282C12.6865 42.444 12.503 39.955 12.8962 37.5708C13.2107 35.7106 13.8136 33.8242 15.0455 32.3308C16.1988 30.9422 18.1385 29.475 19.5277 28.4008C22.6731 25.9904 26.2117 23.8158 28.597 20.5932C28.6232 20.5408 28.6756 20.4884 28.7018 20.436C29.1999 19.7024 29.7765 18.995 30.1959 18.209C31.1133 16.4536 31.5589 14.4886 31.5589 12.5236C31.5589 4.6374 25.6351 0 17.6667 0H5.55689C2.49011 0 0 2.489 0 5.55439V42.444C0 45.5094 2.49011 47.9983 5.55689 47.9983H9.09547C10.9565 47.9721 11.8477 46.4526 12.1885 44.8282Z" fill="#2B0163"/>
<path d="M34.442 36.7063C34.442 40.4005 32.9742 43.3349 30.5365 45.3785C30.4316 45.4571 30.3268 45.5619 30.222 45.6405C28.1512 47.2125 25.5825 48.0247 22.9613 48.0247H13.6299C14.4163 47.4745 14.8619 46.5313 15.0716 45.5357C15.5696 43.2825 15.3861 40.9507 15.7793 38.6975C16.0938 36.9421 16.6967 35.1605 17.9287 33.7457C19.082 32.4357 21.0216 31.0471 22.4109 30.0515C22.7516 29.8157 23.0661 29.5799 23.4069 29.3441C25.0058 28.2175 26.6834 27.1171 28.2036 25.8857C29.4094 26.8551 30.5365 27.9031 31.4801 29.1083C31.5063 29.1607 31.5587 29.2131 31.585 29.2655C32.083 29.9467 32.6596 30.6279 33.079 31.3615C33.9964 32.9859 34.442 34.8461 34.442 36.7063Z" fill="#FF003D"/>
</g>
<defs>
<clipPath id="clip0_2182_22136">
<rect width="34.4422" height="47.9983" fill="white"/>
</clipPath>
</defs>
</svg>
